<?xml version="1.0" standalone="no"?>
<!DOCTYPE svg PUBLIC "-//W3C//DTD SVG 1.1//EN" "http://www.w3.org/Graphics/SVG/1.1/DTD/svg11.dtd" >
<svg xmlns="http://www.w3.org/2000/svg">
<metadata>Generated by IcoMoon</metadata>
<defs>
<font id="icomoon" horiz-adv-x="1024">
<font-face units-per-em="1024" ascent="960" descent="-64" />
<missing-glyph horiz-adv-x="1024" />
<glyph unicode="&#x20;" horiz-adv-x="512" d="" />
<glyph unicode="&#xe900;" glyph-name="1" d="M736.936-64c-179.515 0-371.212 65.962-521.096 215.843-149.634 149.635-215.84 341.205-215.84 521.091 0 158.538 128.264 287.066 287.066 287.066 12.268 0 23.298-7.468 27.854-18.858l128.533-321.334c6.156-15.384-1.327-32.842-16.708-38.996l-141.196-56.475c9.988-162.439 140.376-292.819 302.787-302.793l56.476 141.197c6.14 15.356 23.593 22.868 38.998 16.712l321.331-128.532c11.387-4.559 18.858-15.585 18.858-27.857 0-158.536-128.262-287.064-287.064-287.064v0zM267.1 899.14c-114.896-9.942-207.1-106.29-207.1-226.206 0-180.816 70.412-350.808 198.268-478.665 127.854-127.857 297.85-198.271 478.668-198.271 119.878 0 216.257 92.152 226.206 207.102l-273.76 109.502-53.129-132.809c-4.551-11.391-15.585-18.858-27.853-18.858-211.457 0-383.465 172.007-383.465 383.431 0 12.268 7.468 23.333 18.858 27.887l132.812 53.126-109.504 273.76z" />
<glyph unicode="&#xe901;" glyph-name="2" d="M102.4 734.72h819.2v-204.8h-819.2v204.8z" />
<glyph unicode="&#xe902;" glyph-name="3" d="M904.001 880h-48.002v80h-79.998v-80h-528.001v80h-80v-80h-48c-66.168 0-120-53.832-120-120v-704.001c0-66.167 53.832-119.999 120-119.999h784.001c66.167 0 119.999 53.832 119.999 119.999v704.001c0 66.168-53.832 120-119.999 120zM943.998 55.999c0-22.054-17.944-39.997-39.997-39.997h-784.001c-22.056 0-40 17.944-40 39.997v528.002h863.998v-528.002zM943.998 664h-863.998v96c0 22.056 17.944 40 40 40h48v-80h80v80h528.001v-80h79.998v80h48.002c22.054 0 39.997-17.944 39.997-40v-96zM232 499.999h-80v-79.998h80v79.998zM392.001 499.999h-80.001v-79.998h80.001v79.998zM552.001 499.999h-80.002v-79.998h80.002v79.998zM712.001 499.999h-80.002v-79.998h80.002v79.998zM872.001 499.999h-80.002v-79.998h80.002v79.998zM232 339.999h-80v-79.998h80v79.998zM392.001 339.999h-80.001v-79.998h80.001v79.998zM552.001 339.999h-80.002v-79.998h80.002v79.998zM712.001 339.999h-80.002v-79.998h80.002v79.998zM232 179.999h-80v-79.998h80v79.998zM392.001 179.999h-80.001v-79.998h80.001v79.998zM552.001 179.999h-80.002v-79.998h80.002v79.998zM712.001 179.999h-80.002v-79.998h80.002v79.998zM872.001 339.999h-80.002v-79.998h80.002v79.998z" />
<glyph unicode="&#xe903;" glyph-name="4" d="M512 960c-188.207 0-341.333-153.126-341.333-341.333 0-56.501 14.126-112.521 40.98-162.208l281.689-509.457c3.748-6.793 10.895-11.001 18.664-11.001 7.772 0 14.916 4.209 18.668 11.001l281.791 509.624c26.75 49.521 40.875 105.544 40.875 162.043 0 188.206-153.126 341.332-341.333 341.332zM775.021 477.105l-263.021-475.689-262.915 475.498c-23.396 43.295-35.75 92.314-35.75 141.752 0 164.687 133.979 298.665 298.665 298.665s298.667-133.98 298.667-298.665c0-49.435-12.353-98.458-35.645-141.561zM512 789.333c-94.102 0-170.663-76.562-170.663-170.666 0-94.106 76.561-170.667 170.663-170.667 94.106 0 170.667 76.561 170.667 170.667 0 94.103-76.561 170.667-170.667 170.667zM512 490.667c-70.581 0-128 57.416-128 128s57.419 127.999 128 127.999c70.584 0 128-57.416 128-127.999s-57.416-128-128-128z" />
<glyph unicode="&#xe904;" glyph-name="5" d="M512 240.401c-50.142 43.23-119.467 12.698-119.467-60.228 0-69.274 70.349-85.333 103.714-165.41 1.297-3.11 3.484-5.766 6.287-7.635s6.097-2.865 9.466-2.865c3.369 0 6.662 0.996 9.466 2.865s4.992 4.525 6.287 7.635c33.741 81.101 103.714 95.317 103.714 165.41 0 72.755-69.239 103.526-119.467 60.228zM512 58.88c-36.591 60.211-85.333 78.029-85.333 121.259 0 22.187 11.947 45.961 34.133 45.961 7.3-0.371 14.421-2.381 20.836-5.882 6.415-3.503 11.957-8.405 16.215-14.342 1.66-2.195 3.808-3.974 6.274-5.197 2.466-1.22 5.182-1.852 7.934-1.841s5.463 0.659 7.921 1.899c2.458 1.239 4.593 3.034 6.236 5.242 4.288 5.888 9.83 10.75 16.226 14.236s13.485 5.508 20.757 5.92c22.187 0 34.133-23.689 34.133-45.961 0-43.759-48.077-59.955-85.333-121.293zM997.7 571.678c-97.44 22.413-188.439 66.88-265.999 129.982-77.557 63.101-139.605 143.154-181.37 233.998-3.422 7.275-8.843 13.426-15.631 17.735s-14.66 6.597-22.701 6.597c-8.041 0-15.913-2.288-22.701-6.597s-12.209-10.46-15.631-17.735c-41.764-90.844-103.812-170.897-181.37-233.998-77.559-63.102-168.559-107.569-265.999-129.982-7.469-1.762-14.127-5.988-18.899-12-4.772-6.010-7.379-13.453-7.4-21.126v-124.689c0.018-5.965 1.604-11.821 4.6-16.979s7.295-9.438 12.467-12.41v-414.345c0-9.054 3.596-17.734 9.997-24.137s15.083-9.997 24.136-9.997h921.6c9.052 0 17.734 3.595 24.137 9.997 6.4 6.402 9.997 15.083 9.997 24.137v414.345c5.171 2.972 9.472 7.251 12.467 12.41s4.582 11.014 4.599 16.979v124.689c-0.021 7.674-2.628 15.117-7.401 21.126-4.772 6.012-11.43 10.238-18.899 12v0zM904.533-29.871h-785.067v367.548c53.18-61.099 133.871-61.303 187.733 22.886 56.61-88.474 148.224-88.508 204.8 0 56.525-88.508 148.139-88.627 204.8 0 53.897-84.224 134.571-83.951 187.733-22.886v-367.548zM130.748 379.729h148.19c-42.035-66.799-103.987-69.854-148.19 0zM335.548 379.729h148.19c-42.035-66.799-103.987-69.854-148.19 0zM540.348 379.729h148.19c-42.035-66.799-103.987-69.854-148.19 0zM745.148 379.729h148.19c-42.035-66.799-103.987-69.854-148.19 0zM34.133 413.862v51.2h955.733v-51.2h-955.733zM239.104 499.196c40.796 19.168 78.938 43.537 113.476 72.499 90.897 79.531 137.523 207.393 159.42 289.894 21.897-82.432 68.523-210.363 159.42-289.894 34.539-28.962 72.681-53.331 113.476-72.499h-545.792zM989.867 538.551v-39.356h-116.617c-16.009 5.53-113.715 40.755-179.337 98.167-84.087 73.574-128.239 196.403-149.077 274.773 46.641-83.701 110.366-156.654 187.036-214.126 76.67-57.47 164.572-98.17 257.995-119.458v0zM479.164 872.102c-20.838-78.336-64.99-201.164-149.077-274.773-65.553-57.378-163.328-92.604-179.337-98.133h-116.514v39.253c93.405 21.323 181.284 62.046 257.935 119.526s140.358 130.433 186.993 214.126v0zM51.2 379.729h34.133v-409.6h-34.133v409.6zM938.667-29.871v409.6h34.133v-409.6h-34.133z" />
<glyph unicode="&#xe905;" glyph-name="6" d="M1024 447.997c0-135.791-53.943-266.021-149.961-362.039-96.019-96.019-226.248-149.961-362.039-149.961s-266.020 53.942-362.039 149.961c-96.018 96.018-149.961 226.248-149.961 362.039s53.943 266.020 149.961 362.038c96.019 96.019 226.248 149.962 362.039 149.962s266.020-53.943 362.039-149.962c96.018-96.018 149.961-226.248 149.961-362.038v0zM434.56 634.045c-4.785 3.406-10.415 5.43-16.274 5.85s-11.72-0.781-16.942-3.471c-5.221-2.689-9.601-6.765-12.66-11.78-3.059-5.014-4.68-10.774-4.684-16.646v-320c0.004-5.874 1.624-11.634 4.684-16.648s7.439-9.089 12.66-11.78c5.222-2.691 11.084-3.891 16.942-3.471s11.489 2.444 16.274 5.851l224 160c4.148 2.959 7.529 6.867 9.862 11.398s3.549 9.553 3.549 14.65c0 5.096-1.216 10.118-3.549 14.648s-5.714 8.439-9.862 11.4l-224 160z" />
<glyph unicode="&#xe907;" glyph-name="8" d="M819.2 801.018c27.159 0 53.204-10.625 72.408-29.537 19.202-18.912 29.992-44.563 29.992-71.309s-10.789-52.396-29.992-71.31c-19.205-18.911-45.249-29.538-72.408-29.538s-53.204 10.626-72.408 29.538c-19.202 18.914-29.992 44.564-29.992 71.31s10.789 52.397 29.992 71.309c19.205 18.912 45.249 29.537 72.408 29.537v0zM909.824 519.252c-23.552-160.547-87.245-299.11-229.274-438.884-4.759-4.687-8.536-10.254-11.113-16.379s-3.903-12.691-3.903-19.319c0-6.63 1.327-13.196 3.903-19.321s6.353-11.692 11.113-16.379c4.759-4.689 10.412-8.406 16.631-10.945 6.221-2.537 12.886-3.842 19.619-3.842s13.398 1.306 19.619 3.842c6.218 2.539 11.871 6.256 16.631 10.945 216.986 213.795 270.95 429.808 270.95 691.202-0.009 43.835-14.52 86.473-41.335 121.461s-64.472 60.419-107.276 72.446c-42.801 12.027-88.418 9.993-129.941-5.792s-76.695-44.464-100.191-81.694c-23.494-37.23-34.034-80.985-30.024-124.641s22.353-84.838 52.252-117.311c29.898-32.472 69.725-54.467 113.452-62.657s88.972-2.127 128.887 17.268v0zM204.8 801.018c27.158 0 53.204-10.625 72.408-29.537 19.202-18.912 29.992-44.563 29.992-71.309s-10.789-52.396-29.992-71.31c-19.205-18.911-45.25-29.538-72.408-29.538s-53.204 10.626-72.408 29.538c-19.204 18.914-29.992 44.564-29.992 71.31s10.789 52.397 29.992 71.309c19.204 18.912 45.25 29.537 72.408 29.537v0zM295.424 519.252c-23.552-160.547-87.245-299.11-229.273-438.884-4.76-4.687-8.536-10.254-11.113-16.379s-3.902-12.691-3.902-19.319c0-6.63 1.326-13.196 3.902-19.321s6.352-11.692 11.113-16.379c4.76-4.689 10.412-8.406 16.631-10.945 6.22-2.537 12.886-3.842 19.618-3.842s13.398 1.306 19.618 3.842c6.22 2.539 11.871 6.256 16.631 10.945 216.985 213.795 270.95 429.808 270.95 691.202-0.009 43.835-14.52 86.473-41.335 121.461s-64.472 60.419-107.276 72.446c-42.802 12.027-88.417 9.993-129.94-5.792s-76.695-44.464-100.191-81.694c-23.496-37.23-34.036-80.985-30.025-124.641s22.354-84.838 52.252-117.311c29.899-32.472 69.726-54.467 113.452-62.657s88.971-2.127 128.886 17.268v0z" />
<glyph unicode="&#xe908;" glyph-name="9" d="M1024 447.99c0 9.699-3.847 19.001-10.708 25.86s-16.165 10.712-25.863 10.712h-862.571l230.181 230.107c3.4 3.4 6.097 7.436 7.937 11.879s2.787 9.204 2.787 14.013c0 4.808-0.947 9.57-2.787 14.013s-4.537 8.479-7.937 11.88c-3.4 3.4-7.437 6.097-11.88 7.938s-9.204 2.787-14.013 2.787c-4.808 0-9.571-0.947-14.013-2.787s-8.479-4.537-11.88-7.938l-292.572-292.571c-3.406-3.397-6.108-7.433-7.952-11.876s-2.793-9.206-2.793-14.016c0-4.811 0.949-9.574 2.793-14.017s4.546-8.479 7.952-11.875l292.572-292.571c3.4-3.4 7.437-6.098 11.88-7.938s9.204-2.787 14.013-2.787c4.808 0 9.57 0.946 14.013 2.787s8.479 4.538 11.88 7.938c3.4 3.4 6.097 7.436 7.937 11.879s2.787 9.204 2.787 14.013c0 4.808-0.947 9.57-2.787 14.013s-4.537 8.479-7.937 11.88l-230.181 230.107h862.571c9.699 0 19.003 3.852 25.863 10.711s10.708 16.161 10.708 25.86z" />
<glyph unicode="&#xe909;" glyph-name="10" d="M-0.003 447.99c0 9.699 3.853 19.001 10.711 25.86s16.161 10.712 25.86 10.712h862.577l-230.183 230.107c-3.4 3.4-6.097 7.436-7.937 11.879s-2.787 9.204-2.787 14.013c0 4.808 0.947 9.57 2.787 14.013s4.537 8.479 7.937 11.88c3.4 3.4 7.437 6.097 11.88 7.938s9.204 2.787 14.013 2.787c4.808 0 9.571-0.947 14.013-2.787s8.479-4.537 11.88-7.938l292.574-292.571c3.401-3.397 6.107-7.433 7.951-11.876s2.794-9.206 2.794-14.016c0-4.811-0.951-9.574-2.794-14.017s-4.549-8.479-7.951-11.875l-292.574-292.571c-3.4-3.4-7.437-6.098-11.88-7.938s-9.204-2.787-14.013-2.787c-4.808 0-9.57 0.946-14.013 2.787s-8.479 4.538-11.88 7.938c-3.4 3.4-6.097 7.436-7.937 11.879s-2.787 9.204-2.787 14.013c0 4.808 0.947 9.57 2.787 14.013s4.537 8.479 7.937 11.88l230.183 230.107h-862.577c-9.699 0-19.001 3.852-25.86 10.711s-10.711 16.161-10.711 25.86z" />
<glyph unicode="&#xe90b;" glyph-name="12" d="M10.037 542.369v-282.604c0-49.923 19.832-97.804 55.133-133.102 35.301-35.304 83.179-55.133 133.103-55.133h627.451c49.923 0 97.798 19.829 133.102 55.133 35.304 35.298 55.133 83.179 55.133 133.102v282.604l-476.236-214.338c-8.089-3.636-16.857-5.516-25.725-5.516s-17.636 1.88-25.725 5.516l-476.236 214.338zM14.68 677.898l497.318-223.875 497.317 223.875c-9.445 41.628-32.762 78.809-66.126 105.442-33.358 26.633-74.776 41.136-117.465 41.131h-627.451c-42.687 0.006-84.108-14.498-117.468-41.131s-56.676-63.814-66.125-105.442v0z" />
<glyph unicode="&#xe90c;" glyph-name="13" d="M300.916 956.928c54.598 2.513 72.006 3.072 211.084 3.072s156.486-0.605 211.037-3.072c54.551-2.467 91.788-11.171 124.369-23.785 34.118-12.893 65.071-33.047 90.671-59.113 26.065-25.553 46.173-56.46 59.020-90.624 12.66-32.582 21.318-69.818 23.831-124.276 2.513-54.691 3.072-72.099 3.072-211.13 0-139.078-0.605-156.486-3.072-211.084-2.467-54.458-11.171-91.695-23.831-124.276-12.847-34.169-32.987-65.126-59.020-90.717-25.6-26.065-56.553-46.173-90.671-59.020-32.582-12.66-69.818-21.318-124.276-23.831-54.644-2.513-72.052-3.072-211.13-3.072s-156.486 0.605-211.084 3.072c-54.458 2.467-91.695 11.171-124.276 23.831-34.168 12.847-65.125 32.987-90.717 59.020-26.048 25.567-46.205 56.511-59.066 90.671-12.614 32.582-21.271 69.818-23.785 124.276-2.513 54.691-3.072 72.099-3.072 211.13 0 139.078 0.605 156.486 3.072 211.037s11.171 91.788 23.785 124.369c12.88 34.161 33.053 65.103 59.113 90.671 25.555 26.042 56.482 46.199 90.624 59.066 32.582 12.614 69.818 21.271 124.276 23.785h0.047zM718.895 864.768c-53.993 2.467-70.191 2.979-206.895 2.979s-152.902-0.512-206.895-2.979c-49.943-2.281-77.033-10.612-95.092-17.641-23.878-9.309-40.96-20.34-58.88-38.26-16.987-16.526-30.060-36.644-38.26-58.88-7.028-18.060-15.36-45.149-17.641-95.092-2.467-53.993-2.979-70.191-2.979-206.895s0.512-152.902 2.979-206.895c2.281-49.943 10.612-77.033 17.641-95.092 8.192-22.202 21.271-42.356 38.26-58.88 16.524-16.989 36.678-30.068 58.88-38.26 18.060-7.028 45.149-15.36 95.092-17.641 53.993-2.467 70.144-2.979 206.895-2.979s152.902 0.512 206.895 2.979c49.943 2.281 77.033 10.612 95.092 17.641 23.878 9.309 40.96 20.34 58.88 38.26 16.989 16.524 30.068 36.678 38.26 58.88 7.028 18.060 15.36 45.149 17.641 95.092 2.467 53.993 2.979 70.191 2.979 206.895s-0.512 152.902-2.979 206.895c-2.281 49.943-10.612 77.033-17.641 95.092-9.309 23.878-20.34 40.96-38.26 58.88-16.528 16.986-36.645 30.059-58.88 38.26-18.060 7.028-45.149 15.36-95.092 17.641v0zM446.604 290.164c36.524-15.202 77.191-17.254 115.056-5.804 37.869 11.45 70.586 35.691 92.565 68.585 21.979 32.889 31.86 72.392 27.946 111.76-3.91 39.366-21.364 76.154-49.385 104.080-17.864 17.851-39.461 31.52-63.241 40.022-23.775 8.502-49.147 11.627-74.277 9.148s-49.401-10.499-71.061-23.483c-21.659-12.984-40.172-30.609-54.202-51.606s-23.231-44.844-26.94-69.825c-3.709-24.976-1.832-50.469 5.493-74.636s19.919-46.41 36.872-65.126c16.954-18.716 37.846-33.443 61.174-43.115zM325.911 634.089c24.437 24.437 53.449 43.823 85.378 57.048s66.15 20.033 100.71 20.033c34.56 0 68.78-6.807 100.71-20.033s60.942-32.611 85.378-57.048c24.436-24.437 43.823-53.449 57.046-85.378 13.228-31.929 20.033-66.15 20.033-100.71s-6.805-68.78-20.033-100.71c-13.224-31.93-32.61-60.942-57.046-85.378-49.352-49.352-116.294-77.079-186.089-77.079-69.797 0-136.735 27.727-186.089 77.079s-77.081 116.294-77.081 186.089c0 69.797 27.727 136.735 77.081 186.089v0zM833.536 671.977c6.056 5.713 10.906 12.582 14.257 20.202s5.143 15.835 5.264 24.159c0.121 8.324-1.429 16.588-4.557 24.302-3.133 7.714-7.778 14.722-13.661 20.609-5.888 5.887-12.898 10.532-20.61 13.662s-15.979 4.68-24.301 4.559c-8.327-0.121-16.542-1.912-24.162-5.265s-14.49-8.201-20.201-14.257c-11.11-11.777-17.194-27.421-16.957-43.61s6.772-31.649 18.223-43.097c11.446-11.449 26.908-17.985 43.096-18.221s31.832 5.847 43.608 16.957v0z" />
<glyph unicode="&#xe90d;" glyph-name="14" d="M1004.308 447.999c0 16.321-6.483 31.973-18.022 43.514s-27.191 18.024-43.512 18.024h-712.988l264.246 264.123c11.555 11.555 18.047 27.228 18.047 43.57s-6.492 32.014-18.047 43.569c-11.555 11.555-27.228 18.047-43.57 18.047s-32.014-6.492-43.57-18.047l-369.23-369.231c-5.731-5.716-10.278-12.507-13.38-19.983s-4.699-15.492-4.699-23.586c0-8.094 1.597-16.109 4.699-23.586s7.649-14.267 13.38-19.984l369.23-369.228c11.555-11.555 27.228-18.046 43.57-18.046s32.014 6.491 43.57 18.046c11.555 11.555 18.047 27.223 18.047 43.567 0 16.341-6.492 32.013-18.047 43.568l-264.246 264.123h712.988c16.321 0 31.972 6.483 43.512 18.024s18.022 27.194 18.022 43.514z" />
<glyph unicode="&#xe90e;" glyph-name="15" d="M19.692 447.999c0 16.321 6.483 31.973 18.024 43.514s27.193 18.024 43.514 18.024h712.984l-264.246 264.123c-11.555 11.555-18.047 27.228-18.047 43.57s6.492 32.014 18.047 43.569c11.555 11.555 27.228 18.047 43.57 18.047s32.014-6.492 43.57-18.047l369.232-369.231c5.727-5.716 10.279-12.507 13.375-19.983 3.104-7.477 4.703-15.492 4.703-23.586s-1.599-16.109-4.703-23.586c-3.096-7.476-7.648-14.267-13.375-19.984l-369.232-369.228c-11.555-11.555-27.228-18.046-43.57-18.046s-32.014 6.491-43.57 18.046c-11.555 11.555-18.047 27.223-18.047 43.567 0 16.341 6.492 32.013 18.047 43.568l264.246 264.123h-712.984c-16.321 0-31.974 6.483-43.514 18.024s-18.024 27.194-18.024 43.514z" />
<glyph unicode="&#xe90f;" glyph-name="16" d="M512 798.316c-222.882 0-404.211-181.329-404.211-404.211s181.329-404.211 404.211-404.211c222.882 0 404.211 181.329 404.211 404.211s-181.329 404.211-404.211 404.211zM512 70.737c-178.297 0-323.368 145.074-323.368 323.368 0 178.297 145.071 323.368 323.368 323.368 178.295 0 323.368-145.071 323.368-323.368 0-178.295-145.074-323.368-323.368-323.368zM552.421 596.211h-80.842v-242.526h242.526v80.842h-161.684v161.684z" />
<glyph unicode="&#xe910;" glyph-name="17" d="M940.254 937.599l-589.305-10.991c-10.077-1.447-19.279-6.523-25.878-14.275s-10.14-17.647-9.958-27.825c0.182-10.179 4.073-19.94 10.945-27.452s16.248-12.256 26.37-13.343l488.792 8.721-808.072-837.436c-7.694-7.974-11.905-18.674-11.708-29.754s4.788-21.623 12.762-29.321c7.974-7.694 18.677-11.902 29.756-11.704 11.079 0.195 21.625 4.785 29.319 12.759l807.606 836.95 8.704-487.841c-0.631-5.891-0.003-11.848 1.843-17.48 1.847-5.629 4.871-10.803 8.871-15.176 3.997-4.369 8.881-7.84 14.326-10.182s11.322-3.495 17.248-3.389c5.922 0.106 11.756 1.468 17.114 4.004 5.356 2.533 10.11 6.175 13.954 10.687 3.84 4.512 6.676 9.789 8.322 15.483 1.645 5.69 2.058 11.667 1.219 17.534l-10.523 589.79c-0.399 10.798-4.966 21.022-12.742 28.526s-18.156 11.702-28.962 11.714v0z" />
<glyph unicode="&#xe911;" glyph-name="18" d="M563.523 692.948c11.388 10.842 26.543 16.836 42.264 16.717s30.785-6.341 42.006-17.354c11.226-11.013 17.731-25.955 18.146-41.673s-5.292-30.983-15.915-42.573l-322.562-403.404c-5.546-5.972-12.241-10.768-19.682-14.093-7.442-3.331-15.478-5.12-23.629-5.271s-16.248 1.342-23.808 4.392c-7.56 3.050-14.427 7.594-20.191 13.355l-213.908 213.91c-5.957 5.551-10.735 12.244-14.049 19.682s-5.096 15.466-5.239 23.607c-0.144 8.141 1.354 16.228 4.403 23.777s7.588 14.408 13.346 20.165c5.757 5.758 12.616 10.297 20.165 13.346s15.636 4.547 23.777 4.403c8.141-0.143 16.17-1.926 23.608-5.239s14.131-8.092 19.682-14.049l169.283-169.203 280.685 357.726c0.501 0.624 1.040 1.218 1.617 1.779v0zM489.147 277.42l74.376-74.377c5.761-5.751 12.622-10.283 20.173-13.323 7.556-3.045 15.64-4.538 23.784-4.387 8.138 0.151 16.168 1.94 23.601 5.26 7.437 3.325 14.126 8.106 19.672 14.067l322.722 403.404c5.794 5.723 10.38 12.556 13.479 20.091s4.646 15.617 4.549 23.762c-0.097 8.146-1.832 16.189-5.104 23.65s-8.014 14.185-13.943 19.771c-5.928 5.587-12.924 9.921-20.566 12.745s-15.775 4.078-23.913 3.689c-8.133-0.389-16.109-2.414-23.45-5.954-7.335-3.54-13.883-8.522-19.251-14.649l-280.765-357.726-39.208 39.289-76.236-95.313h0.081z" />
<glyph unicode="&#xe912;" glyph-name="19" d="M992 844l-84 84-396-396-396 396-84-84 396-396-396-396 84-84 396 396 396-396 84 84-396 396 396 396z" />
<glyph unicode="&#xe913;" glyph-name="20" horiz-adv-x="975" d="M959.561 402.749v90.51h-426.686v426.688h-90.511v-426.688h-426.688v-90.51h426.688v-426.686h90.511v426.686h426.686z" />
<glyph unicode="&#xe914;" glyph-name="21" d="M176-32.006h672c25.459 0 49.882 10.112 67.885 28.115s28.115 42.426 28.115 67.885v431.999c0.038 6.317-1.171 12.58-3.565 18.428-2.387 5.848-5.907 11.167-10.355 15.652l-384 384c-8.993 8.94-21.159 13.958-33.84 13.958s-24.847-5.018-33.84-13.958l-384-384c-4.535-4.445-8.144-9.747-10.615-15.597s-3.758-12.132-3.785-18.483v-431.999c0-25.459 10.114-49.882 28.118-67.885s42.422-28.115 67.882-28.115zM416 63.994v240h192v-240h-192zM176 476.313l336 336 336-336v-412.319h-144v240c0 25.46-10.115 49.878-28.118 67.882s-42.422 28.118-67.882 28.118h-192c-25.46 0-49.879-10.114-67.882-28.118s-28.118-42.421-28.118-67.882v-240h-144v412.319z" />
<glyph unicode="&#xe915;" glyph-name="22" d="M559.868 640.051c152.088 0 238.366-100.656 250.897-222.24h3.84c97.894 0 177.242-79.152 177.242-176.76 0-97.633-79.347-176.763-177.242-176.763h-509.498c-97.848 0-177.192 79.13-177.192 176.763 0 97.608 79.344 176.76 177.216 176.76h3.84c12.624 122.376 98.832 222.24 250.92 222.24h-0.024zM559.868 580.171c-102.264 0-191.4-82.752-191.4-197.040 0-18.12-15.768-32.352-33.792-32.352h-34.080c-62.28 0-112.728-50.712-112.728-113.28 0-62.593 50.472-113.326 112.728-113.326h518.547c62.253 0 112.723 50.733 112.723 113.302 0 62.592-50.47 113.328-112.723 113.328h-34.080c-18.048 0-33.792 14.208-33.792 32.304 0 115.776-89.139 197.040-191.403 197.040v0.024zM144.908 440.995c2.822-6.828 3.012-14.459 0.534-21.419s-7.448-12.753-13.95-16.261l-2.76-1.32-55.464-23.064c-7.082-3.016-15.056-3.176-22.254-0.449s-13.064 8.131-16.37 15.082c-3.307 6.951-3.798 14.911-1.373 22.216s7.581 13.39 14.389 16.982l2.76 1.32 55.464 23.064c7.313 3.028 15.53 3.027 22.844-0.001s13.125-8.838 16.156-16.15h0.024zM456.908 672.403l-1.488-0.48c-21.631-7.012-42.34-16.6-61.68-28.56-25.775 10.906-54.351 13.338-81.598 6.943s-51.757-21.284-69.989-42.518c-18.232-21.235-29.244-47.715-31.443-75.616s4.526-55.78 19.206-79.608c-18.068-6.453-35.226-15.213-51.048-26.064-22.082 37.817-30.36 82.124-23.424 125.363s28.657 82.733 61.459 111.747c32.803 29.013 74.653 45.748 118.417 47.352s86.726-12.024 121.564-38.559h0.024zM69.811 668.083l3.048-1.104 55.656-23.736c15.12-6.384 22.368-23.88 16.2-39.096-5.76-14.184-21.192-21.36-35.52-17.040l-3.024 1.080-55.68 23.736c-7.273 3.107-13.040 8.94-16.064 16.248s-3.064 15.51-0.112 22.848c5.76 14.184 21.168 21.36 35.496 17.040v0.024zM246.643 816.235l1.32-2.76 23.040-55.344c2.89-7.094 2.957-15.026 0.188-22.168s-8.167-12.954-15.085-16.244c-6.918-3.29-14.833-3.809-22.121-1.451s-13.399 7.416-17.078 14.135l-1.32 2.76-23.040 55.344c-2.89 7.094-2.957 15.025-0.188 22.168s8.167 12.954 15.085 16.244c6.918 3.29 14.833 3.809 22.121 1.451s13.399-7.416 17.078-14.135v0zM463.82 829.675c14.424-5.976 21.792-21.84 17.52-36.48l-1.104-3.12-23.808-54.624c-3.016-7.098-8.621-12.78-15.677-15.893s-15.032-3.42-22.307-0.862c-7.276 2.559-13.303 7.792-16.858 14.636s-4.369 14.785-2.278 22.208l1.104 3.12 23.76 54.624c1.526 3.68 3.763 7.023 6.582 9.838s6.164 5.048 9.846 6.57c3.682 1.522 7.627 2.304 11.611 2.301s7.928-0.79 11.608-2.317z" />
<glyph unicode="&#xe916;" glyph-name="23" d="M298.636-49.778c-14.124-0.080-27.953 4.045-39.724 11.85-11.77 7.811-20.949 18.95-26.365 31.994s-6.825 27.403-4.047 41.256c2.778 13.847 9.618 26.556 19.647 36.5l376.889 376.178-376.889 376.178c-13.39 13.391-20.913 31.552-20.913 50.489 0 9.377 1.847 18.662 5.435 27.324s8.848 16.534 15.478 23.165c6.63 6.63 14.502 11.89 23.164 15.478s17.948 5.435 27.325 5.435c18.937 0 37.098-7.523 50.489-20.913l426.667-426.667c13.244-13.323 20.676-31.347 20.676-50.133s-7.431-36.81-20.676-50.133l-426.667-426.667c-6.586-6.719-14.44-12.066-23.107-15.724-8.667-3.664-17.974-5.569-27.382-5.609z" />
<glyph unicode="&#xe918;" glyph-name="25" d="M1024 448.004c-0.358 38.48-15.857 75.271-43.154 102.4l-313.783 314.514c-13.704 13.623-32.242 21.269-51.566 21.269s-37.862-7.647-51.566-21.269c-6.856-6.8-12.297-14.889-16.010-23.802s-5.625-18.474-5.625-28.129c0-9.656 1.912-19.215 5.625-28.129s9.155-17.003 16.010-23.803l240.64-239.908h-731.429c-19.399 0-38.003-7.706-51.72-21.424s-21.423-32.32-21.423-51.719c0-19.399 7.706-38.003 21.423-51.72s32.321-21.423 51.72-21.423h731.429l-240.64-240.637c-13.773-13.678-21.549-32.263-21.618-51.675s7.576-38.049 21.252-51.822c13.676-13.773 32.263-21.555 51.673-21.621s38.052 7.578 51.825 21.255l313.783 314.511c27.472 27.308 42.993 64.396 43.154 103.131z" />
<glyph unicode="&#xe919;" glyph-name="26" d="M360.166 666.944c3.793 4.43 6.818 9.729 8.898 15.586s3.174 12.156 3.217 18.53c0.043 6.373-0.965 12.694-2.965 18.591s-4.953 11.256-8.685 15.76c-3.732 4.505-8.17 8.066-13.054 10.477s-10.117 3.622-15.392 3.564c-5.276-0.058-10.489-1.385-15.336-3.903s-9.23-6.178-12.894-10.764l-264.735-320.192c-7.441-9-11.62-21.202-11.62-33.92s4.18-24.919 11.62-33.92l264.735-319.872c7.491-8.75 17.526-13.594 27.944-13.486 10.418 0.102 20.386 5.146 27.757 14.039s11.554 20.931 11.65 33.516c0.096 12.585-3.905 24.714-11.139 33.772l-197.082 238.080h415.46c84.5 0 148.869 15.488 206.034 48.896l13.036 8.064c58.122 37.215 105.667 94.647 136.474 164.864 32.317 72.96 47.15 154.752 47.15 264.64 0 12.73-4.188 24.94-11.638 33.941s-17.556 14.059-28.099 14.059c-10.537 0-20.644-5.057-28.093-14.059-7.455-9.001-11.638-21.211-11.638-33.941 0-94.976-12.078-161.28-37.775-219.392-23.393-53.468-59.576-97.181-103.839-125.44-44.396-28.672-94.618-43.264-163.917-45.376l-17.695-0.256h-415.195l196.816 238.144z" />
<glyph unicode="&#xe91a;" glyph-name="27" d="M18.286 609.445v-408.302c0-43.647 17.339-85.504 48.202-116.37 30.863-30.859 72.722-48.201 116.37-48.201h658.286c43.644 0 85.504 17.342 116.37 48.201 30.859 30.866 48.201 72.723 48.201 116.37v493.714c0 43.647-17.342 85.506-48.201 116.37-30.866 30.863-72.726 48.202-116.37 48.202h-658.286c-43.647 0-85.506-17.339-116.37-48.202s-48.202-72.722-48.202-116.37v-85.413zM182.857 777.143h658.286c21.826 0 42.752-8.67 58.185-24.101s24.101-36.361 24.101-58.184v-60.891l-411.429-221.513-411.429 221.513v60.891c0 21.824 8.67 42.753 24.101 58.184s36.362 24.101 58.185 24.101v0zM100.571 540.489l391.927-210.981c5.993-3.226 12.694-4.915 19.501-4.915s13.508 1.689 19.502 4.915l391.926 210.981v-339.346c0-21.824-8.667-42.753-24.101-58.185-15.433-15.433-36.359-24.101-58.185-24.101h-658.286c-21.824 0-42.753 8.667-58.185 24.101-15.431 15.432-24.101 36.362-24.101 58.185v339.346z" />
<glyph unicode="&#xe91b;" glyph-name="28" d="M768 544h-64c-0.023 25.453-10.149 49.856-28.149 67.854-17.994 17.998-42.399 28.12-67.851 28.146v64c42.416-0.051 83.086-16.924 113.084-46.919 29.992-29.995 46.865-70.662 46.916-113.081v0zM896.063 544h-64c-0.068 59.387-23.694 116.324-65.684 158.317-41.995 41.993-98.93 65.615-158.316 65.683v64c76.356-0.085 149.561-30.455 203.548-84.447 53.993-53.992 84.366-127.197 84.452-203.553v0zM832.063 32h-5.444c-628.798 36.159-718.078 566.72-730.558 728.64-1.951 25.384 6.262 50.504 22.831 69.833s40.137 31.286 65.521 33.24c2.539 0.192 5.088 0.288 7.648 0.288h168.64c12.818 0.013 25.344-3.824 35.957-11.013s18.821-17.399 23.563-29.307l48.64-119.68c4.683-11.634 5.845-24.387 3.342-36.675s-8.561-23.57-17.422-32.445l-68.16-68.8c10.604-60.522 39.564-116.319 82.955-159.824s99.111-72.614 159.605-83.377l69.439 68.801c9.011 8.763 20.4 14.68 32.745 17.013 12.351 2.333 25.111 0.979 36.699-3.893l120.639-48.323c11.73-4.887 21.732-13.164 28.746-23.762 7.009-10.598 10.701-23.046 10.615-35.755v-168.96c0-25.463-10.115-49.88-28.12-67.88-18.005-18.005-42.422-28.12-67.88-28.12zM192.060 800c-4.202 0.013-8.366-0.803-12.253-2.399s-7.422-3.943-10.403-6.906c-2.98-2.963-5.348-6.483-6.968-10.361s-2.46-8.036-2.472-12.239c0-0.896 0.032-1.782 0.096-2.656 14.72-189.44 109.12-637.44 670.079-669.44 8.471-0.506 16.794 2.367 23.142 7.999 6.349 5.626 10.206 13.545 10.712 22.016l0.068 1.985v168.96l-120.644 48.321-91.836-91.199-15.36 1.917c-278.402 34.879-316.162 313.28-316.162 316.16l-1.92 15.36 90.88 91.84-48 120.64h-168.96z" />
<glyph unicode="&#xe91c;" glyph-name="29" d="M930.163 373.075c4.614 25.313 7.085 51.187 7.085 77.062 0 57.375-11.245 113.062-33.408 165.375-21.376 50.625-52.090 96.075-91.13 135.113-38.707 38.81-84.595 69.721-135.11 91.012-52.424 22.162-107.999 33.412-165.374 33.412-27 0-54.113-2.588-80.438-7.65-36.426 19.302-77.013 29.42-118.237 29.475-67.162 0-130.387-26.213-177.862-73.688-23.427-23.306-42.001-51.025-54.649-81.555s-19.119-63.262-19.039-96.308c0-42.75 11.025-84.825 31.613-121.95-4.163-24.075-6.413-48.712-6.413-73.237 0-57.375 11.25-113.062 33.412-165.376 21.375-50.624 51.975-96.077 91.012-135.11 39.037-39.040 84.488-69.638 135.113-91.014 52.425-22.163 107.999-33.414 165.375-33.414 24.975 0 49.95 2.253 74.475 6.643 37.688-21.267 80.215-32.627 123.748-32.627 67.162 0 130.387 26.099 177.862 73.69 47.59 47.469 73.69 110.694 73.69 177.862 0.115 42.746-10.912 84.934-31.725 122.285zM831.053 130.074c-32.288-32.397-74.925-49.946-120.602-49.946-29.363 0-58.278 7.648-83.926 22.157l-25.312 14.291-28.688-5.062c-20.025-3.603-40.275-5.402-60.3-5.402-46.575 0-91.462 9.114-133.988 27.11-40.837 17.216-77.625 41.965-109.35 73.69-31.405 31.296-56.431 68.397-73.688 109.235-18 42.415-27 87.303-27 133.878 0 19.575 1.8 39.6 5.175 59.4l4.95 28.237-13.95 25.087c-14.070 25.249-21.466 53.67-21.487 82.575 0 45.675 17.663 88.313 49.95 120.6 32.4 32.287 75.037 49.95 120.712 49.95 28.015-0.076 55.588-6.988 80.325-20.138l25.2-13.275 27.9 5.4c21.262 4.050 43.2 6.188 65.25 6.188 46.575 0 91.462-9.112 133.873-27 41.062-17.325 77.741-42.076 109.35-73.688 31.725-31.613 56.474-68.4 73.798-109.35 18.003-42.413 27.002-87.3 27.002-133.875 0-20.7-1.914-41.625-5.734-62.438l-5.286-28.687 14.17-25.425c14.176-25.312 21.6-53.997 21.6-82.912 0-45.786-17.658-88.314-49.946-120.602v0zM592.326 499.525l-99.45 22.050c-37.8 8.662-81.337 20.025-81.337 55.688s30.487 60.637 85.612 60.637c111.037 0 100.913-76.275 156.040-76.275 29.024 0 54.445 17.1 54.445 46.35 0 68.4-109.572 119.812-202.497 119.812-100.913 0-208.35-42.863-208.35-156.938 0-54.9 19.575-113.4 127.8-140.513l134.325-33.524c40.612-10.013 50.85-32.851 50.85-53.55 0-34.316-34.088-67.839-95.85-67.839-120.6 0-103.837 92.813-168.412 92.813-29.025 0-50.063-20.025-50.063-48.487 0-55.578 67.5-129.824 218.475-129.824 143.661 0 214.874 69.184 214.874 161.999 0 59.738-27.558 123.3-136.461 147.6z" />
</font>
</defs>
</svg>
